<mxfile host="app.diagrams.net" modified="2024-04-07T08:33:54.695Z" agent="Mozilla/5.0 (Windows NT 10.0; Win64; x64) AppleWebKit/537.36 (KHTML, like Gecko) Chrome/123.0.0.0 Safari/537.36" etag="eJV6OWEPGgP6wGlrLuOS" version="24.2.2" type="github">
  <diagram name="Page-1" id="zuXbqSnwmqj0cWmO8iZg">
    <mxGraphModel dx="1900" dy="1622" grid="1" gridSize="10" guides="1" tooltips="1" connect="1" arrows="1" fold="1" page="1" pageScale="1" pageWidth="850" pageHeight="1100" math="0" shadow="0">
      <root>
        <mxCell id="0" />
        <mxCell id="1" parent="0" />
        <mxCell id="m8JGMmTYuIlXO8g8tdGf-2" value="User Login&amp;nbsp;" style="ellipse;whiteSpace=wrap;html=1;" vertex="1" parent="1">
          <mxGeometry x="70" y="-440" width="130" height="60" as="geometry" />
        </mxCell>
        <mxCell id="m8JGMmTYuIlXO8g8tdGf-4" value="User Login&amp;nbsp;" style="ellipse;whiteSpace=wrap;html=1;" vertex="1" parent="1">
          <mxGeometry x="170" y="-170" width="130" height="60" as="geometry" />
        </mxCell>
        <mxCell id="m8JGMmTYuIlXO8g8tdGf-5" value="User Login&amp;nbsp;" style="ellipse;whiteSpace=wrap;html=1;" vertex="1" parent="1">
          <mxGeometry x="-10" y="-300" width="130" height="60" as="geometry" />
        </mxCell>
        <mxCell id="m8JGMmTYuIlXO8g8tdGf-6" value="User Login&amp;nbsp;" style="ellipse;whiteSpace=wrap;html=1;" vertex="1" parent="1">
          <mxGeometry x="50" y="-140" width="130" height="60" as="geometry" />
        </mxCell>
      </root>
    </mxGraphModel>
  </diagram>
</mxfile>
